<?xml version="1.0" encoding="UTF-8" standalone="no"?>
<svg
   xmlns:dc="http://purl.org/dc/elements/1.1/"
   xmlns:cc="http://creativecommons.org/ns#"
   xmlns:rdf="http://www.w3.org/1999/02/22-rdf-syntax-ns#"
   xmlns:svg="http://www.w3.org/2000/svg"
   xmlns="http://www.w3.org/2000/svg"
   id="svg1128"
   version="1.1"
   viewBox="0 0 60 50"
   height="50mm"
   width="60mm">
  <defs
     id="defs1122" />
  <metadata
     id="metadata1125">
    <rdf:RDF>
      <cc:Work
         rdf:about="">
        <dc:format>image/svg+xml</dc:format>
        <dc:type
           rdf:resource="http://purl.org/dc/dcmitype/StillImage" />
        <dc:title></dc:title>
      </cc:Work>
    </rdf:RDF>
  </metadata>
  <g
     transform="translate(0,-247)"
     id="layer1">
    <g
       id="g1077"
       style="display:inline;opacity:1"
       transform="translate(-142.79964,225.95329)">
      <path
         style="fill:#7ed1e7;fill-opacity:1;stroke:none;stroke-width:0.24192794px;stroke-linecap:butt;stroke-linejoin:miter;stroke-opacity:1"
         d="m 188.6208,59.506809 c 0,0 2.47016,-0.879749 3.76046,-0.486157 1.29029,0.393592 2.86298,1.134112 3.2864,2.244894 0.42342,1.110779 0.52212,3.235891 0.52212,3.235891 l -14.76255,0.06701 c 0,0 -0.0897,-0.784793 0.44914,-1.945284 0.54439,-1.172491 0.90757,-2.895116 2.41953,-3.332343 1.51195,-0.437227 4.3249,0.215985 4.3249,0.215985 z"
         id="path4675" />
      <path
         style="fill:#b71e6b;fill-opacity:1;stroke:#000000;stroke-width:0;stroke-linecap:butt;stroke-linejoin:miter;stroke-miterlimit:4;stroke-dasharray:none;stroke-opacity:1"
         d="m 169.89893,64.531849 c -1.46998,-2.204974 -1.10249,-1.570208 -1.5034,-3.240642 -0.4009,-1.670436 -0.33409,-1.5368 -0.80181,-2.873147 -0.46772,-1.33635 -2.8906,-7.197074 -2.8906,-7.197074 l -6.75632,-0.519719 c 0,0 -1.38494,1.928453 -2.04612,3.440479 -0.99471,2.274775 -1.40316,4.343129 -1.60361,5.211756 -0.20046,0.868627 -1.06908,5.211754 -1.06908,5.211754 z"
         id="path864" />
      <path
         style="fill:#577ab0;fill-opacity:1;stroke:#325c9f;stroke-width:0.26458332px;stroke-linecap:butt;stroke-linejoin:miter;stroke-opacity:1"
         d="m 158.97428,53.106076 0.33409,5.044712 0.10023,-4.677217 z"
         id="path4596" />
      <path
         style="fill:#fad8c7;fill-opacity:1;stroke:#000000;stroke-width:0;stroke-linecap:butt;stroke-linejoin:miter;stroke-miterlimit:4;stroke-dasharray:none;stroke-opacity:1"
         d="m 157.19084,51.787948 c -1.5119,1.133927 -2.97418,2.565178 -2.97418,2.565178 0,0 -1.51527,2.276945 -2.40485,3.650466 -0.69868,1.078763 4.85932,-0.971224 4.85932,-0.971224 0,0 1.37016,-0.377978 2.12611,-0.04725 0.75595,0.330729 0.85045,0.614211 0.85045,0.330729 0,-0.28348 0.42522,-1.606397 -0.66146,-1.606397 -1.08668,0 -3.96805,0.49204 -3.96805,0.49204 0,0 -0.003,-0.522946 0.0306,-0.673285 0.0334,-0.150338 2.14208,-3.740258 2.14208,-3.740257 z"
         id="path4594" />
      <path
         style="fill:#577ab0;fill-opacity:1;stroke:#325c9f;stroke-width:0.36500001;stroke-linecap:round;stroke-linejoin:round;stroke-miterlimit:4;stroke-dasharray:none;stroke-opacity:1"
         d="m 158.65551,49.37835 3.09037,1.476124 1.53983,-1.428876 1.41741,1.795387 c 0,0 -0.23624,0.897692 -1.18118,0.708703 -0.94494,-0.188987 -1.77606,-1.075214 -1.77606,-1.075214 0,0 -1.53123,1.45319 -2.47617,0.838981 -0.94494,-0.614212 -1.32291,-0.992188 -1.32291,-0.992188 z"
         id="path862" />
      <path
         style="fill:#fad8c7;fill-opacity:1;stroke:#ffffff;stroke-width:0;stroke-linecap:butt;stroke-linejoin:round;stroke-miterlimit:4;stroke-dasharray:none;stroke-opacity:1"
         d="m 161.82105,50.654018 c 0,0 -3.44567,-1.267565 -5.79517,-3.273883 -2.12106,-1.811247 -2.26044,-3.624183 -2.26044,-3.624183 l -1.05529,-0.02101 c 0,0 -1.38646,0.133636 -1.46998,-1.135896 -0.0835,-1.269529 0.65147,-1.954408 0.65147,-1.954408 0,0 0.15905,-0.161094 0.43867,0.06979 0.27962,0.230886 0.66382,0.732017 1.06472,0.598382 0.40091,-0.133634 1.16931,-0.534538 1.36976,-1.1526 0.20045,-0.618061 0.5255,-1.811173 0.4009,-3.123713 -0.12459,-1.312537 -1.10248,-2.806329 -0.65147,-2.956668 0.45102,-0.150339 2.55577,-0.100227 3.57473,-1.386462 1.01897,-1.286232 1.34612,-3.111518 1.34612,-3.111518 0,0 2.66947,0.980374 2.94114,1.263856 0.27167,0.283483 2.37778,1.714029 3.14618,2.783107 0.7684,1.069078 1.60362,1.703843 1.90429,2.973374 0.30068,1.269529 0.36749,2.939963 0.36749,2.939963 0,0 -0.18936,-0.444114 1.33636,-0.501129 1.52571,-0.05701 1.5368,1.670434 1.5368,1.670434 0,0 -0.50114,2.138156 -1.23613,2.238383 -0.73499,0.100227 -1.84602,-0.528606 -1.84602,-0.528606 0,0 -0.27238,1.648965 -0.5886,2.196666 -0.31621,0.547698 -1.49026,2.161868 -2.55332,3.366667 -1.06305,1.204799 -2.62221,2.669458 -2.62221,2.669458 z"
         id="path4610" />
      <ellipse
         style="fill:#bb2270;fill-opacity:1;stroke:#aa0d57;stroke-width:0.66500002;stroke-miterlimit:4;stroke-dasharray:none;stroke-opacity:1"
         id="path4591"
         cy="41.960564"
         cx="157.19086"
         rx="0.8976934"
         ry="0.70870531" />
      <ellipse
         style="display:inline;fill:#bb2270;fill-opacity:1;stroke:#aa0d57;stroke-width:0.66500002;stroke-miterlimit:4;stroke-dasharray:none;stroke-opacity:1"
         id="path4591-9"
         cy="41.535343"
         cx="164.41965"
         rx="0.89769346"
         ry="0.70870531" />
      <path
         style="fill:#131311;fill-opacity:1;stroke:#ffffff;stroke-width:0.30000001;stroke-linecap:round;stroke-miterlimit:4;stroke-dasharray:none;stroke-opacity:1"
         id="path4620"
         d="m 164.18341,37.89732 a 0.61421114,0.61421114 0 0 1 -0.60719,0.614171 0.61421114,0.61421114 0 0 1 -0.62107,-0.600129 0.61421114,0.61421114 0 0 1 0.59299,-0.627892 0.61421114,0.61421114 0 0 1 0.63463,0.585772" />
      <path
         style="display:inline;opacity:1;fill:#131311;fill-opacity:1;stroke:#ffffff;stroke-width:0.30000001;stroke-linecap:round;stroke-miterlimit:4;stroke-dasharray:none;stroke-opacity:1"
         id="path4620-9"
         d="m 158.52762,38.33065 a 0.6142112,0.6142112 0 0 1 -0.60719,0.614171 0.6142112,0.6142112 0 0 1 -0.62107,-0.600128 0.6142112,0.6142112 0 0 1 0.59298,-0.627893 0.6142112,0.6142112 0 0 1 0.63464,0.585773" />
      <path
         style="fill:none;stroke:#000000;stroke-width:0.465;stroke-linecap:round;stroke-linejoin:miter;stroke-miterlimit:4;stroke-dasharray:none;stroke-opacity:1"
         d="m 159.31626,44.169015 c 0,0 0.37798,0.425223 1.25205,0.377976 0.87407,-0.04725 1.39379,-0.4016 1.39379,-0.4016"
         id="path4639" />
      <path
         style="fill:none;stroke:#000000;stroke-width:0.26458332px;stroke-linecap:butt;stroke-linejoin:miter;stroke-opacity:1"
         d="M 174.87682,38.974199 Z"
         id="path4666" />
      <path
         style="fill:none;stroke:#000000;stroke-width:0.26458332px;stroke-linecap:butt;stroke-linejoin:miter;stroke-opacity:1"
         d="M 174.87682,38.974199 Z"
         id="path4668" />
      <path
         style="display:inline;opacity:1;fill:#577ab0;fill-opacity:1;stroke:#325c9f;stroke-width:0.60000002;stroke-linecap:butt;stroke-linejoin:round;stroke-miterlimit:4;stroke-dasharray:none;stroke-opacity:1"
         d="m 165.59622,46.745205 c 0.4095,-0.607138 0.4061,-0.348035 1.40036,-2.127308 0.31621,-0.547701 0.5886,-2.196666 0.5886,-2.196666 0,0 1.11102,0.628833 1.84601,0.528606 0.73499,-0.100227 1.23614,-2.238383 1.23614,-2.238383 0,0 -0.0111,-1.727445 -1.5368,-1.670435 -1.52573,0.05701 -1.33637,0.501129 -1.33637,0.501129 0,0 -0.0668,-1.670434 -0.36748,-2.939963 -0.30068,-1.269531 -1.1359,-1.904296 -1.9043,-2.973374 -0.7684,-1.069078 -2.55713,-2.48292 -3.14618,-2.783107 -0.3719,-0.250073 -2.94114,-1.263856 -2.94114,-1.263856 0,0 -0.32715,1.825286 -1.34612,3.111517 -1.01896,1.286235 -3.12371,1.236123 -3.57473,1.386462 -0.45101,0.150339 0.52688,1.644131 0.65147,2.956669 0.1246,1.312539 -0.20045,2.505652 -0.4009,3.123714 -0.20045,0.618062 -0.96885,1.018966 -1.36976,1.1526 -0.4009,0.133635 -0.7851,-0.367496 -1.06472,-0.598382 -0.27962,-0.230884 -0.43867,-0.06979 -0.43867,-0.06979 0,0 -0.73497,0.684879 -0.65147,1.954408 0.0835,1.269532 1.46998,1.135896 1.46998,1.135896 l 1.05529,0.02101 c -0.0787,0.104884 1.13366,3.427192 3.66361,4.693261 0,0 -0.927,0.915091 -1.66199,1.148952 -1.18949,0.378475 -1.50339,0.06682 -1.9043,-0.300678 -0.4009,-0.367496 -0.7684,-1.369757 -0.7684,-1.369757 0,0 0.53455,-0.334087 0,0 -0.53453,0.334087 -0.96885,1.135896 -1.67043,0.7684 -0.70158,-0.367496 -1.06908,-0.701582 -1.33635,-1.503391 -0.26727,-0.801809 -0.0334,-1.5368 0.13364,-1.837478 0.16704,-0.300678 -0.0668,-1.035669 -0.30068,-1.135895 -0.95366,-0.547594 -1.23213,-1.000006 -1.5368,-1.971113 0,0 -0.20045,-0.835217 0,-1.5368 0,0 0.16704,-1.035669 0.80181,-1.603617 0.63476,-0.567948 1.80407,-1.03567 2.20497,-1.169304 0.40091,-0.133635 0.40091,-0.801809 0.10023,-1.202713 -0.30068,-0.400904 -0.96885,-1.26953 -0.96885,-1.971113 0,-0.701582 -0.13373,-1.728711 0.36749,-2.772921 0.40091,-0.835217 0.90204,-1.737252 2.37202,-2.372017 1.46998,-0.634765 1.77066,-0.167044 2.3052,-0.133635 0.53454,0.03341 0.70158,-0.233861 0.7684,-0.50113 0.0668,-0.26727 0.49539,-1.067052 1.00226,-1.369756 0.60135,-0.26727 1.60362,-0.768401 2.43883,-0.133636 0.85884,0.516648 0.93545,0.7684 1.10249,1.369757 0.16704,0.601356 0.43431,1.035669 1.33635,0.868626 0.90203,-0.167044 1.20596,-0.604374 2.90656,-0.434313 1.33634,0.133635 2.43883,0.367495 3.04018,1.102487 0.60136,0.734991 0.56795,1.236121 0.26727,1.703843 -0.30067,0.467721 -0.66817,1.503391 0.23386,1.302939 0.90204,-0.200452 2.17157,-0.167044 2.47225,0.467721 0.30068,0.634766 0.50113,1.236122 0.30068,2.57247 -0.20046,1.336347 -0.83522,2.605877 0.16704,2.004521 1.00226,-0.601356 2.27179,-0.668172 2.77292,-0.06682 0.50113,0.601354 0.60136,0.935443 0.66817,1.637026 0.0668,0.701582 -0.53453,2.305199 -1.26953,3.140416 -0.73499,0.835218 -1.70384,1.971114 -2.97337,2.639287 -1.15299,0.606839 -2.20497,0.734991 -3.10701,0.868626 -0.90203,0.133635 -2.09773,0.08701 -2.09773,0.08701 z"
         id="path4610-0" />
      <path
         style="fill:#577ab0;fill-opacity:1;stroke:#325c9f;stroke-width:0.36500001;stroke-linecap:butt;stroke-linejoin:round;stroke-miterlimit:4;stroke-dasharray:none;stroke-opacity:1"
         d="m 164.74982,64.540202 -0.13364,-3.274052 c 0,0 0.67753,0.656284 1.36261,0.49092 0.68508,-0.165365 0.94494,-0.614212 0.94494,-0.614212 l 0.58468,3.389973"
         id="path866" />
      <path
         style="fill:#d7e052;fill-opacity:1;stroke:#b1095f;stroke-width:0.30000001;stroke-linecap:round;stroke-linejoin:round;stroke-miterlimit:4;stroke-dasharray:none;stroke-opacity:1"
         d="m 154.68676,55.520461 c 3.68526,3.82701 3.73251,3.874257 3.73251,3.874257 l -1.98437,3.023809 -4.48847,-2.69308 z"
         id="path868" />
      <path
         style="fill:#fad8c7;fill-opacity:1;stroke:none;stroke-width:0.26458332px;stroke-linecap:butt;stroke-linejoin:miter;stroke-opacity:1"
         d="m 158.39564,59.772695 0.47247,-0.02363 c 0,0 0.23624,0.04725 0.92132,-0.118117 0.68508,-0.165364 0.4016,-0.04725 0.92132,-0.377976 0.51972,-0.33073 0.99219,-0.637836 1.86626,-0.850447 0.87407,-0.212612 0.77957,-0.141741 1.06305,-0.401599 0.28348,-0.259858 0.37798,-1.086681 0.47247,-1.653646 0.0945,-0.566965 0.54334,-2.433222 0.4961,-2.952937 -0.0472,-0.519719 -0.0709,-1.370164 -0.0709,-1.370164 0,0 0.33073,-0.165367 0.66146,0.354352 0.33073,0.519715 0.64357,0.927743 0.80894,1.565578 -0.0236,0.614212 -0.12383,1.033008 -0.12383,0.891265 0,-0.141739 -0.0236,0.448848 0.11812,1.039437 0.14174,0.590587 0.11811,1.464657 0.0709,1.795386 -0.0472,0.330729 0.18899,1.228423 -0.4016,1.700892 -0.59059,0.472472 -1.15923,0.508253 -1.86793,0.579125 -0.70871,0.07087 -2.36068,0.483934 -2.85677,0.602052 -0.4961,0.118118 -2.33873,0.708705 -2.64584,0.708705 -0.3071,0 -1.55324,-0.177176 -1.45875,-0.295294 0.0945,-0.118118 0.77367,-0.106306 0.67918,-0.177178 -0.0945,-0.07087 -0.76186,0.129931 -0.73824,-0.08269 0.0242,-0.217498 0.92132,-0.165364 0.99219,-0.283482 0.0709,-0.118118 -0.91541,0.153549 -0.96266,0.01181 -0.0472,-0.141743 -0.0236,-0.12993 -0.0236,-0.12993 0,0 1.18118,-0.01181 1.15756,-0.153553 0,0 -0.85636,0.289391 -0.82683,-0.07087 0.01,-0.117723 1.06306,-0.09449 1.06306,-0.09449 z"
         id="path870" />
      <ellipse
         style="fill:#68a5cd;fill-opacity:1;stroke:#7ed1e7;stroke-width:0.39079982;stroke-linecap:round;stroke-linejoin:round;stroke-miterlimit:4;stroke-dasharray:none;stroke-opacity:1;paint-order:normal"
         id="path872"
         cx="153.84067"
         cy="-67.616135"
         rx="0.78221554"
         ry="0.5919646"
         transform="matrix(0.72393788,0.68986516,-0.72393788,0.68986516,0,0)" />
      <path
         style="fill:#68a5cd;fill-opacity:1;stroke:#000000;stroke-width:0;stroke-linecap:butt;stroke-linejoin:miter;stroke-miterlimit:4;stroke-dasharray:none;stroke-opacity:1"
         d="m 160.30915,60.776692 c 0,0 0.16536,-0.02953 0.18898,-0.17127 0.0236,-0.14174 0.0235,-0.259859 0.0235,-0.259859 l 0.32483,-0.09449 0.0177,0.135835 c 0,0 0.0472,0.153554 -0.0413,0.236236 -0.0886,0.08268 -0.51381,0.153551 -0.51381,0.153551 z"
         id="path4583" />
      <path
         style="fill:none;stroke:#b1095f;stroke-width:0.30000001;stroke-linecap:round;stroke-linejoin:miter;stroke-miterlimit:4;stroke-dasharray:none;stroke-opacity:1"
         d="m 154.68676,55.520459 0.46223,4.183833 3.27028,-0.309576"
         id="path4585" />
      <path
         style="fill:none;stroke:#b1095f;stroke-width:0.30000001;stroke-linecap:round;stroke-linejoin:round;stroke-miterlimit:4;stroke-dasharray:none;stroke-opacity:1"
         d="m 151.94643,59.725445 3.08563,-0.655918"
         id="path4587" />
      <path
         style="fill:none;stroke:#b1095f;stroke-width:0.198;stroke-linecap:round;stroke-linejoin:round;stroke-miterlimit:4;stroke-dasharray:none;stroke-opacity:1"
         d="m 155.93287,59.686353 0.50325,2.733409"
         id="path4589" />
      <ellipse
         style="fill:#be555a;fill-opacity:1;stroke:#b1095f;stroke-width:0.40000001;stroke-linecap:round;stroke-linejoin:round;stroke-miterlimit:4;stroke-dasharray:none;stroke-opacity:1;paint-order:normal"
         id="path4592"
         cx="155.48483"
         cy="59.348705"
         rx="0.59570473"
         ry="0.61297756" />
      <path
         style="fill:#577ab0;fill-opacity:1;stroke:#325c9f;stroke-width:0.33374628;stroke-linecap:round;stroke-linejoin:round;stroke-miterlimit:4;stroke-dasharray:none;stroke-opacity:1"
         d="m 185.73756,57.673335 2.84148,1.800066 3.04846,-1.964474 0.712,1.478316 c 0,0 -1.49701,1.745422 -2.26689,1.87633 -0.7699,0.130906 -1.49357,-1.390172 -1.49357,-1.390172 0,0 -0.30285,1.826527 -1.02996,1.651986 -0.72712,-0.174544 -2.26689,-2.181779 -2.26689,-2.181779 z"
         id="path4673" />
      <path
         style="fill:#fad8c7;fill-opacity:1;stroke:#000000;stroke-width:0;stroke-linecap:butt;stroke-linejoin:miter;stroke-miterlimit:4;stroke-dasharray:none;stroke-opacity:1"
         d="m 188.5866,59.272844 c 0,0 -2.45733,-1.249629 -3.24368,-2.082714 -0.80597,-0.853875 -1.02829,-1.326766 -1.02829,-1.326766 l -1.0283,-2.406693 c 0,0 -1.20977,-0.06171 -1.69368,-0.308549 -0.4839,-0.24684 -0.39317,-0.154277 -0.51414,-0.277695 -0.12098,-0.123421 -0.63513,-0.431972 -0.54439,-1.203348 0.0907,-0.771373 0.39317,-0.863939 0.66536,-0.863939 0.2722,0 0.18147,0.154276 0.48391,0.09257 0.30244,-0.06171 0.63512,-0.802232 0.63512,-0.802232 0,0 0.33269,-1.2342 0.42342,-2.591822 0.0907,-1.357621 0.21171,-4.196281 0.21171,-4.196281 0,0 1.14927,-0.709666 2.75221,-0.925653 1.60293,-0.215985 2.96392,-0.431969 4.44588,-0.185129 1.48196,0.246839 3.50831,0.771376 3.50831,0.771376 0,0 -0.0907,1.666172 0.18146,2.962082 0.2722,1.29591 1.24001,5.430482 1.24001,5.430482 0,0 0.60488,-0.09256 1.0283,0.09257 0.42342,0.185129 0.7561,0.6171 0.7561,0.894794 0,0.277695 -0.21171,1.141637 -0.96781,1.110782 -0.7561,-0.03086 -1.54245,-0.123421 -1.54245,-0.123421 0,0 -0.90732,2.221563 -2.14733,3.517473 -1.24,1.295911 -3.62172,2.422121 -3.62172,2.422121 z"
         id="path4598" />
      <ellipse
         style="display:inline;opacity:1;fill:#bb2270;fill-opacity:1;stroke:#aa0d57;stroke-width:0.60805827;stroke-miterlimit:4;stroke-dasharray:none;stroke-opacity:1"
         id="path4591-9-6"
         cy="52.34589"
         cx="191.93614"
         rx="0.81265986"
         ry="0.6545338" />
      <ellipse
         style="display:inline;opacity:1;fill:#bb2270;fill-opacity:1;stroke:#aa0d57;stroke-width:0.60805827;stroke-miterlimit:4;stroke-dasharray:none;stroke-opacity:1"
         id="path4591-9-6-4"
         cy="52.28418"
         cx="185.64539"
         rx="0.81265986"
         ry="0.6545338" />
      <path
         style="display:inline;opacity:1;fill:#131311;fill-opacity:1;stroke:#ffffff;stroke-width:0.27431202;stroke-linecap:round;stroke-miterlimit:4;stroke-dasharray:none;stroke-opacity:1"
         id="path4620-9-5"
         d="m 190.74671,49.304779 a 0.59880197,0.6108982 0 0 1 -0.59196,0.610858 0.59880197,0.6108982 0 0 1 -0.60549,-0.596891 0.59880197,0.6108982 0 0 1 0.57811,-0.624506 0.59880197,0.6108982 0 0 1 0.61871,0.582613" />
      <path
         style="display:inline;opacity:1;fill:#131311;fill-opacity:1;stroke:#ffffff;stroke-width:0.27431202;stroke-linecap:round;stroke-miterlimit:4;stroke-dasharray:none;stroke-opacity:1"
         id="path4620-9-5-3"
         d="m 186.56304,49.319504 a 0.59880197,0.6108982 0 0 1 -0.59196,0.610858 0.59880197,0.6108982 0 0 1 -0.60549,-0.596891 0.59880197,0.6108982 0 0 1 0.57811,-0.624506 0.59880197,0.6108982 0 0 1 0.61871,0.582612" />
      <path
         style="fill:#325c9f;fill-opacity:1;stroke:#325c9f;stroke-width:0.51662093;stroke-linecap:butt;stroke-linejoin:round;stroke-miterlimit:4;stroke-dasharray:none;stroke-opacity:1"
         d="m 185.53881,42.580261 c 0,0 1.24039,-0.349084 2.09582,-0.349084 0.85543,0 2.52351,0.08727 2.52351,0.08727 v -4.538101 c 0,0 -0.4303,2.011621 -1.07188,1.924351 -0.64157,-0.08727 -0.51066,-1.182545 -0.8956,-1.793444 -0.29942,-1.396338 -3.20788,-3.752661 -3.20788,-3.752661 0,0 0.65404,1.806448 0.85544,2.792678 0.21385,1.047253 0.29377,2.376135 -0.2195,2.594314 -0.51325,0.218176 -2.3468,-1.285246 -2.3468,-1.285246 0,0 0.17109,1.17816 0.2994,1.701788 0.12832,0.523627 1.83918,2.618134 1.83918,2.618134 z"
         id="path4660" />
      <path
         style="fill:#577ab0;fill-opacity:1;stroke:#325c9f;stroke-width:0.42518362;stroke-linecap:round;stroke-linejoin:round;stroke-miterlimit:4;stroke-dasharray:none;stroke-opacity:1"
         d="m 190.20092,39.351227 -0.0427,2.967218 3.5019,0.64752 c 0,0 -0.0802,1.83971 0.0909,2.712422 0.17109,0.872713 1.33056,5.680142 1.33056,5.680142 0,0 1.1502,0.34157 2.09117,-1.05477 l 0.94098,-1.396337 0.21385,-0.785441 c 0,0 -0.68434,1.09089 -1.36869,0.349083 -0.68435,-0.741803 0.25663,-1.65815 0.68435,-2.399955 0.42771,-0.741806 0.64157,-1.876332 0.64157,-1.876332 0,0 -0.68435,0.829077 -1.32592,0.523628 -0.64157,-0.305449 -0.55603,-1.003618 -0.55603,-1.48361 0,-0.479991 0.12832,-2.18178 0.12832,-2.18178 0,0 -0.21386,0.916348 -1.11207,0.654534 l -0.47048,-0.414538 c 0,0 -1.3473,-1.461791 -1.94611,-1.810876 -0.50511,-0.294462 -1.26176,-0.436356 -1.83917,-0.39272 -0.57742,0.04364 -0.96237,0.261812 -0.96237,0.261812 z"
         id="path4662" />
      <path
         style="fill:none;stroke:#000000;stroke-width:0.24192794px;stroke-linecap:butt;stroke-linejoin:miter;stroke-opacity:1"
         d="M 194.47807,41.358464 Z"
         id="path4664" />
      <path
         style="fill:#577ab0;fill-opacity:1;stroke:#325c9f;stroke-width:0.51662093;stroke-linecap:round;stroke-linejoin:round;stroke-miterlimit:4;stroke-dasharray:none;stroke-opacity:1"
         d="m 182.01608,50.679718 c 0,0 0.4839,-0.277694 0.63512,-1.943865 0.15122,-1.666171 0.30244,-5.430482 0.30244,-5.430482 l 2.58517,-0.72511 -2.01053,-2.854075 c 0,0 -0.57464,0.09257 -1.08879,0.925653 -0.51415,0.833084 -0.60488,0.833084 -0.60488,0.833084 l -1.33074,1.789592 c 0,0 -0.57464,0.92565 -0.90732,0.86394 -0.33269,-0.06171 -0.99806,-0.771377 -0.99806,-0.771377 l 0.93757,2.005577 c 0,0 0.42341,0.863942 0,1.234203 -0.42342,0.37026 -1.20977,-0.246843 -1.20977,-0.246843 0,0 1.66343,2.437548 2.23807,2.931227 0.57463,0.647957 1.45172,1.388476 1.45172,1.388476 z"
         id="path4669" />
      <path
         style="fill:none;stroke:#000000;stroke-width:0.39763388;stroke-linecap:round;stroke-linejoin:round;stroke-miterlimit:4;stroke-dasharray:none;stroke-opacity:1"
         d="m 187.03303,54.465498 c 0,0 0.0799,0.653274 1.27934,0.653274 1.19938,0 1.99896,-0.734934 1.99896,-0.734934"
         id="path4671" />
    </g>
  </g>
</svg>
