<?xml version="1.0" encoding="UTF-8" standalone="no"?>
<!-- Created with Inkscape (http://www.inkscape.org/) -->

<svg
   xmlns:dc="http://purl.org/dc/elements/1.1/"
   xmlns:cc="http://creativecommons.org/ns#"
   xmlns:rdf="http://www.w3.org/1999/02/22-rdf-syntax-ns#"
   xmlns:svg="http://www.w3.org/2000/svg"
   xmlns="http://www.w3.org/2000/svg"
   xmlns:sodipodi="http://sodipodi.sourceforge.net/DTD/sodipodi-0.dtd"
   xmlns:inkscape="http://www.inkscape.org/namespaces/inkscape"
   width="48mm"
   height="63mm"
   viewBox="0 0 48 63"
   version="1.1"
   id="svg1338"
   inkscape:version="0.92.3 (2405546, 2018-03-11)"
   sodipodi:docname="elka.svg">
  <defs
     id="defs1332" />
  <sodipodi:namedview
     id="base"
     pagecolor="#ffffff"
     bordercolor="#666666"
     borderopacity="1.0"
     inkscape:pageopacity="0.0"
     inkscape:pageshadow="2"
     inkscape:zoom="0.7"
     inkscape:cx="8.9877341"
     inkscape:cy="114.63374"
     inkscape:document-units="mm"
     inkscape:current-layer="layer1"
     showgrid="false"
     inkscape:window-width="1366"
     inkscape:window-height="721"
     inkscape:window-x="-4"
     inkscape:window-y="-4"
     inkscape:window-maximized="1" />
  <metadata
     id="metadata1335">
    <rdf:RDF>
      <cc:Work
         rdf:about="">
        <dc:format>image/svg+xml</dc:format>
        <dc:type
           rdf:resource="http://purl.org/dc/dcmitype/StillImage" />
        <dc:title></dc:title>
      </cc:Work>
    </rdf:RDF>
  </metadata>
  <g
     inkscape:label="Layer 1"
     inkscape:groupmode="layer"
     id="layer1"
     transform="translate(0,-234)">
    <g
       style="display:inline;opacity:1"
       id="g1301"
       transform="matrix(0.57781809,0,0,0.57781809,-49.590063,186.24568)">
      <path
         sodipodi:nodetypes="ccsccccc"
         inkscape:connector-curvature="0"
         id="path1103"
         d="m 119.0625,171.13393 h 18.70982 c 0,0 1.32291,8.69345 1.32291,10.77232 0,2.07887 -0.94494,3.2128 -3.21279,5.10268 -2.26786,1.88988 -8.69345,2.07887 -11.33929,1.5119 -2.26786,-0.56696 -3.40178,-0.75595 -5.10268,-3.21279 -0.67236,-0.77778 -1.42217,-1.8994 -1.13393,-4.53572 0.37798,-2.45685 0.75596,-9.63839 0.75596,-9.63839 z"
         style="fill:#b71e6b;fill-opacity:1;stroke:#000000;stroke-width:0.60000002;stroke-linecap:round;stroke-linejoin:round;stroke-miterlimit:4;stroke-dasharray:none;stroke-opacity:1" />
      <path
         sodipodi:nodetypes="cccccsccszcc"
         inkscape:connector-curvature="0"
         id="path1097"
         d="m 97.286105,161.76162 -6.013564,5.07812 c 0,0 -3.82816,3.2693 -2.058485,5.86511 1.675185,1.65086 3.394832,1.88571 5.933893,2.01934 2.539061,0.13364 17.639791,-1.46998 17.639791,-1.46998 0,0 7.61718,-0.93544 11.09168,-0.93544 3.47451,0 11.8935,-0.13364 16.03617,0.53453 4.14268,0.66818 12.96258,2.13816 17.50616,2.27179 4.54358,0.13364 8.68626,0.40091 9.88897,-1.87088 1.20271,-2.27179 0.53294,-3.4726 -0.80181,-5.34539 -1.33475,-1.87279 -7.34991,-6.81538 -7.34991,-6.81538 -25.18255,-7.83019 -44.17247,-4.72006 -61.872895,0.66818 z"
         style="fill:#5c9238;fill-opacity:1;stroke:#000000;stroke-width:0.26458332px;stroke-linecap:round;stroke-linejoin:round;stroke-opacity:1" />
      <path
         sodipodi:nodetypes="ccsssccczcccc"
         inkscape:connector-curvature="0"
         id="path1105"
         d="m 107.06175,149.21131 c 0,0 -4.54324,3.56866 -7.748508,8.50446 -1.13393,1.79539 -3.118306,4.91369 -2.834822,6.4256 0.515704,2.75042 2.834822,3.30729 4.63021,3.49628 1.79539,0.18899 6.28773,1.10662 12.6622,-0.94494 7.36992,-2.37193 14.55208,-7.18155 14.55208,-7.18155 0,0 3.49628,2.92932 7.84301,4.7247 4.34672,1.79539 13.60714,3.40179 13.60714,3.40179 v 0 c 0,0 5.33892,0.66146 7.27605,-0.37798 2.07886,-0.89769 4.50469,-2.57446 3.02381,-5.24442 -1.48088,-2.66995 -11.33929,-12.99293 -11.33929,-12.99293 z"
         style="fill:#3c7317;fill-opacity:1;stroke:#000000;stroke-width:0.26458332px;stroke-linecap:butt;stroke-linejoin:miter;stroke-opacity:1" />
      <path
         sodipodi:nodetypes="cccsssccccsscc"
         inkscape:connector-curvature="0"
         id="path1107"
         d="m 109.71414,139.31098 c 0,0 -10.247379,8.35217 -11.717362,10.02261 -1.469983,1.67043 -1.909331,2.55932 -1.646115,3.80859 0.381334,1.391 1.135896,2.27179 2.672694,2.73951 1.536803,0.46772 5.078123,1.40316 10.423513,0.66817 5.34539,-0.73499 7.34991,-1.33634 11.35895,-3.20723 4.00905,-1.87089 7.88445,-4.14268 7.88445,-4.14268 0,0 3.14042,2.13816 7.61719,4.00904 4.47676,1.87089 7.89471,2.92676 12.89575,3.27406 4.81085,0.33408 5.98015,0.4009 8.0515,-0.56795 0,0 3.84199,-1.70385 3.14041,-3.74178 -0.70158,-2.03793 -1.80407,-2.93997 -2.83974,-4.04245 -1.45606,-1.55 -10.69078,-9.2208 -10.69078,-9.2208 z"
         style="fill:#5c9238;fill-opacity:1;stroke:#000000;stroke-width:0.26458332px;stroke-linecap:butt;stroke-linejoin:miter;stroke-opacity:1" />
      <path
         sodipodi:nodetypes="cccssscssccscc"
         inkscape:connector-curvature="0"
         id="path1109"
         d="m 114.25772,131.29289 c 0,0 -6.74855,6.81538 -8.95353,8.95353 -1.85062,1.92555 -1.88046,2.53929 -1.78596,3.15351 0.18899,0.92132 0.66145,1.84263 1.84263,2.17336 1.18118,0.33073 4.11049,1.22842 8.69345,0.47247 4.58296,-0.75595 7.79576,-1.84264 10.3471,-3.35454 2.55134,-1.5119 4.34673,-2.83482 4.34673,-2.83482 0,0 1.79538,1.79539 4.01599,2.88207 2.22061,1.08668 6.28386,2.69308 9.96913,3.16555 3.68526,0.47247 7.13812,0.22233 8.67492,-0.37902 1.5368,-0.60136 2.00452,-1.00226 2.13816,-2.00453 0.13364,-1.00226 -0.33409,-1.26953 -0.80181,-2.00452 -0.46772,-0.73499 -9.55488,-9.88897 -9.55488,-9.88897 z"
         style="fill:#3c7317;fill-opacity:1;stroke:#000000;stroke-width:0.26458332px;stroke-linecap:butt;stroke-linejoin:miter;stroke-opacity:1" />
      <path
         sodipodi:nodetypes="cccccccsssccc"
         inkscape:connector-curvature="0"
         id="path1111"
         d="m 113.39285,124.73735 c 0,0 -7.09229,6.28099 -8.22098,7.65402 -0.8285,0.98408 0,0 -0.8285,0.98408 0,0 -1.14441,1.36157 -0.96688,2.5122 0.16081,0.76643 1.31438,2.0677 4.06324,1.98437 4.63021,1e-5 7.9375,-0.0472 12.94568,-1.5119 4.016,-1.22843 8.12649,-4.25223 8.12649,-4.25223 0,0 3.40179,2.74032 6.52009,3.87425 3.1183,1.13393 9.89839,2.743 13.13467,2.26786 3.04576,-0.44717 4.42852,-0.94159 5.10268,-2.07887 0.5514,-0.93019 0.0945,-2.03162 -0.37797,-2.50409 -0.47248,-0.47247 -8.69946,-8.7218 -8.69946,-8.7218 z"
         style="fill:#5c9238;fill-opacity:1;stroke:#000000;stroke-width:0.26458332px;stroke-linecap:butt;stroke-linejoin:miter;stroke-opacity:1" />
      <path
         sodipodi:nodetypes="ccccccccccccc"
         inkscape:connector-curvature="0"
         id="path1113"
         d="m 117.26711,117.74479 c 0,0 -6.14211,6.3311 -7.37053,7.46503 -1.22843,1.13393 -1.84264,2.26786 -1.6064,2.83482 0.23623,0.56697 0.77555,1.45116 2.78757,1.74814 1.99821,0.29495 3.73252,0.61422 8.07924,-0.28348 2.50925,-0.49679 4.8192,-1.5119 6.4256,-2.55134 1.60639,-1.03943 2.88206,-1.79538 2.88206,-1.79538 0,0 2.56423,2.18809 5.43738,2.9899 2.87315,0.8018 5.81311,1.40316 9.08716,1.26953 3.27405,-0.13364 4.84426,-0.3675 5.3788,-1.03567 0.53454,-0.66818 0.16705,-1.50339 -0.16704,-1.93771 -0.33409,-0.43431 -8.55262,-9.18739 -8.55262,-9.18739 z"
         style="fill:#3c7317;fill-opacity:1;stroke:#000000;stroke-width:0.26458332px;stroke-linecap:butt;stroke-linejoin:miter;stroke-opacity:1" />
      <path
         sodipodi:nodetypes="cscscccccccc"
         inkscape:connector-curvature="0"
         id="path1115"
         d="m 119.06857,110.44587 c 0,0 -7.95127,7.61718 -9.2208,8.95353 -1.26953,1.33635 -1.60003,2.2748 -1.5368,2.93997 0.16705,1.03566 1.63703,1.75395 3.20724,1.67043 2.94263,-0.15652 6.5481,-0.20045 10.42351,-1.67043 3.87541,-1.46999 6.94901,-3.20724 6.94901,-3.20724 0,0 2.27179,2.20497 5.27857,3.20724 3.00678,1.00226 6.8591,1.26952 9.28761,1.26952 2.43884,1e-5 4.22436,-0.26071 4.74404,-1.20271 0.60867,-1.10332 0,-1.80407 -0.53454,-2.60588 -0.53454,-0.8018 -9.42125,-8.88671 -9.42125,-8.88671 -6.49198,-1.05399 -12.93441,-1.66196 -19.17659,-0.46772 z"
         style="fill:#5c9238;fill-opacity:1;stroke:#000000;stroke-width:0.26458332px;stroke-linecap:butt;stroke-linejoin:miter;stroke-opacity:1" />
      <path
         sodipodi:nodetypes="cssccccccscc"
         inkscape:connector-curvature="0"
         id="path1117"
         d="m 119.73674,105.30093 c 0,0 -4.17608,4.2429 -4.97789,5.04471 -0.80181,0.80181 -1.39437,1.98699 -1.04002,2.57758 0.35435,0.59059 1.07355,0.98073 2.72719,1.02797 1.65365,0.0473 5.30283,-0.34656 6.53137,-0.86603 1.17202,-0.49558 5.44561,-2.70611 5.44561,-2.70611 0,0 2.17157,1.57021 4.00905,2.23839 1.83748,0.66817 3.85199,1.34759 6.0726,1.41846 2.22061,0.0709 3.47265,-0.0236 4.37035,-0.59059 0.89769,-0.56696 0.87407,-1.01581 0.73233,-1.5119 -0.14174,-0.49609 -5.0949,-5.89749 -5.0949,-5.89749 z"
         style="fill:#3c7317;fill-opacity:1;stroke:#000000;stroke-width:0.26458332px;stroke-linecap:butt;stroke-linejoin:miter;stroke-opacity:1" />
      <path
         inkscape:connector-curvature="0"
         id="path1121"
         d="m 126.95275,93.743305 c 0,0 -1.79539,1.511903 -3.9215,3.827008 -2.12612,2.315104 -3.44904,4.630207 -4.96094,6.236607 -1.5119,1.6064 -4.29948,3.87426 -4.53571,4.44122 -0.23624,0.56696 -0.23624,1.27567 0.18898,1.74814 0.42523,0.47247 1.6064,0.85045 2.92932,0.8977 1.32292,0.0472 5.33891,-0.0945 7.51228,-1.08669 2.17336,-0.99219 4.29947,-2.59858 4.29947,-2.59858 0,0 1.93713,1.60639 4.016,2.45684 2.07887,0.85045 5.81138,1.51191 7.46503,1.32292 1.65365,-0.18899 2.78758,-0.28348 3.35454,-0.99219 0.56696,-0.7087 0.42522,-1.08668 -0.0472,-1.74814 -0.47247,-0.66146 -3.21279,-2.88207 -4.7247,-4.77195 -1.5119,-1.88988 -3.44903,-4.819194 -5.10268,-6.661829 -1.65364,-1.842632 -3.1183,-3.307292 -3.1183,-3.307292 z"
         style="fill:#5c9238;fill-opacity:1;stroke:#000000;stroke-width:0.26458332px;stroke-linecap:butt;stroke-linejoin:miter;stroke-opacity:1" />
      <path
         sodipodi:nodetypes="ccssccsccccccccccccscsccc"
         inkscape:connector-curvature="0"
         id="path1123"
         d="m 122.22805,100.1689 c 0,0 0.7087,-1.88988 0,-3.071057 -0.70871,-1.181176 -2.69308,-3.543527 -3.02381,-3.874256 -0.33073,-0.330729 -1.51191,-1.464657 -0.14174,-1.606399 1.37016,-0.14174 4.29948,-0.283485 5.57515,-1.275669 1.27567,-0.992188 1.79538,-2.504092 1.79538,-2.504092 0,0 0.70871,-1.559153 1.32292,-2.55134 0.61421,-0.992188 0.94494,-0.708705 1.41741,0.0945 0.47247,0.803198 1.41741,3.071056 1.41741,3.071056 0,0 0.33073,1.41741 1.27567,1.937128 0.94494,0.519716 3.1183,0.992187 3.1183,0.992187 0,0 1.98438,0.188987 2.78758,0.33073 0.8032,0.14174 1.03943,0.566962 0.56696,1.039434 -0.47247,0.472469 -2.36235,2.362351 -2.36235,2.362351 0,0 -1.46466,1.228421 -1.84263,2.173364 -0.42523,1.464656 0.0945,3.449023 0.0945,3.449023 0,0 0.37798,1.32292 0.42522,2.22062 0.0472,0.89769 -0.0945,1.46465 -1.41741,0.94494 -1.32291,-0.51972 -2.83481,-1.37017 -2.83481,-1.37017 0,0 -1.55916,-0.75595 -2.40961,-0.75595 -0.85045,0 -1.84263,0.37797 -2.55133,0.8032 -0.70871,0.42522 -1.74815,1.13393 -2.17337,1.27567 -0.42522,0.14174 -1.46465,0.30219 -1.46465,-0.66146 -1e-5,-0.94494 0.42522,-3.02381 0.42522,-3.02381 z"
         style="fill:#d7df52;fill-opacity:1;stroke:#000000;stroke-width:0.60000002;stroke-linecap:butt;stroke-linejoin:miter;stroke-miterlimit:4;stroke-dasharray:none;stroke-opacity:1" />
      <circle
         r="5.5458426"
         cy="151.53856"
         cx="150.53955"
         id="path1135"
         style="fill:#b71e6b;fill-opacity:1;stroke:#000000;stroke-width:0.60000002;stroke-linecap:round;stroke-linejoin:round;stroke-miterlimit:4;stroke-dasharray:none;stroke-dashoffset:64.20472717;stroke-opacity:1;paint-order:normal" />
      <circle
         r="4.446136"
         cy="141.24867"
         cx="114.1909"
         id="path1135-9"
         style="display:inline;opacity:1;fill:#325c9f;fill-opacity:1;stroke:#000000;stroke-width:0.60000002;stroke-linecap:round;stroke-linejoin:round;stroke-miterlimit:4;stroke-dasharray:none;stroke-dashoffset:64.20472717;stroke-opacity:1;paint-order:normal" />
      <circle
         r="4.963645"
         cy="130.82516"
         cx="140.11606"
         id="path1135-7"
         style="display:inline;opacity:1;fill:#325c9f;fill-opacity:1;stroke:#000000;stroke-width:0.60000002;stroke-linecap:round;stroke-linejoin:round;stroke-miterlimit:4;stroke-dasharray:none;stroke-dashoffset:64.20472717;stroke-opacity:1;paint-order:normal" />
      <circle
         r="6.192729"
         cy="160.75935"
         cx="103.76739"
         id="path1135-7-2"
         style="display:inline;opacity:1;fill:#d7df52;fill-opacity:1;stroke:#000000;stroke-width:0.60000002;stroke-linecap:round;stroke-linejoin:round;stroke-miterlimit:4;stroke-dasharray:none;stroke-dashoffset:64.20472717;stroke-opacity:1;paint-order:normal" />
      <circle
         r="5.2870879"
         cy="160.158"
         cx="129.22482"
         id="path1135-7-2-9"
         style="display:inline;opacity:1;fill:#7ed1e7;fill-opacity:1;stroke:#000000;stroke-width:0.60000002;stroke-linecap:round;stroke-linejoin:round;stroke-miterlimit:4;stroke-dasharray:none;stroke-dashoffset:64.20472717;stroke-opacity:1;paint-order:normal" />
      <circle
         r="4.8989563"
         cy="169.64607"
         cx="156.61993"
         id="path1135-7-2-9-3"
         style="display:inline;opacity:1;fill:#d7df52;fill-opacity:1;stroke:#000000;stroke-width:0.60000002;stroke-linecap:round;stroke-linejoin:round;stroke-miterlimit:4;stroke-dasharray:none;stroke-dashoffset:64.20472717;stroke-opacity:1;paint-order:normal" />
      <circle
         r="4.8989568"
         cy="119.26577"
         cx="119.20221"
         id="path1135-7-2-9-3-8"
         style="display:inline;opacity:1;fill:#b71e6b;fill-opacity:1;stroke:#000000;stroke-width:0.60000002;stroke-linecap:round;stroke-linejoin:round;stroke-miterlimit:4;stroke-dasharray:none;stroke-dashoffset:64.20472717;stroke-opacity:1;paint-order:normal" />
      <circle
         r="4.3814483"
         cy="112.31676"
         cx="133.10022"
         id="path1135-7-2-9-3-8-6"
         style="display:inline;opacity:1;fill:#7ed1e7;fill-opacity:1;stroke:#000000;stroke-width:0.60000002;stroke-linecap:round;stroke-linejoin:round;stroke-miterlimit:4;stroke-dasharray:none;stroke-dashoffset:64.20472717;stroke-opacity:1;paint-order:normal" />
      <circle
         r="4.3814483"
         cy="143.45366"
         cx="133.10022"
         id="path1135-7-2-9-3-8-6-2"
         style="display:inline;opacity:1;fill:#d7df52;fill-opacity:1;stroke:#000000;stroke-width:0.60000002;stroke-linecap:round;stroke-linejoin:round;stroke-miterlimit:4;stroke-dasharray:none;stroke-dashoffset:64.20472717;stroke-opacity:1;paint-order:normal" />
    </g>
  </g>
</svg>
