<?xml version="1.0" encoding="UTF-8" standalone="no"?>
<svg
   xmlns:dc="http://purl.org/dc/elements/1.1/"
   xmlns:cc="http://creativecommons.org/ns#"
   xmlns:rdf="http://www.w3.org/1999/02/22-rdf-syntax-ns#"
   xmlns:svg="http://www.w3.org/2000/svg"
   xmlns="http://www.w3.org/2000/svg"
   xmlns:xlink="http://www.w3.org/1999/xlink"
   width="80mm"
   height="80mm"
   viewBox="0 0 80 80"
   version="1.1"
   id="svg8">
  <defs
     id="defs2" />
  <metadata
     id="metadata5">
    <rdf:RDF>
      <cc:Work
         rdf:about="">
        <dc:format>image/svg+xml</dc:format>
        <dc:type
           rdf:resource="http://purl.org/dc/dcmitype/StillImage" />
        <dc:title></dc:title>
      </cc:Work>
    </rdf:RDF>
  </metadata>
    <g
     id="layer1"
     style="display:inline;opacity:0.98999999"
     transform="translate(0,-217)">
    <g
       id="g871"
       transform="translate(-45.43582,189.76137)">
      <path
         id="path846"
         d="m 88.25744,38.842262 0.149847,-3.273883 c 0,0 0.03914,-1.356326 0.228125,-1.923291 0.188989,-0.566965 0.661458,-1.322916 1.511905,-0.850447 0.850445,0.472471 4.913689,2.173364 4.913689,2.173364 0,0 1.322916,-1.039434 2.267857,-1.039434 0.944941,0 2.173364,1.133927 2.173364,1.133927 l 4.346733,-2.173361 c 0,0 2.45684,-0.944941 2.83482,0.850445 0.37798,1.795388 -0.37798,4.91369 -0.37798,4.91369 z"
         style="display:inline;fill:#f28291;fill-opacity:0.99215686;stroke:#000000;stroke-width:0.69999999;stroke-linecap:butt;stroke-linejoin:miter;stroke-miterlimit:4;stroke-dasharray:none;stroke-opacity:1" />
      <path
         id="path838"
         d="m 115.47172,79.285713 c 0,0 0.0897,-4.713239 0.23485,-7.142407 0.1413,-2.365682 0.42661,-13.079319 0.6156,-14.496729 0.18899,-1.417412 0.18899,-1.511906 0.18899,-1.511906 0,0 0.6186,-6.51802 0.56696,-8.031993 l -0.12791,-3.750288 -0.14984,-1.824861 -0.10023,-0.472472 c 0,0 -0.37798,-2.456844 -2.83482,-2.740326 -2.45685,-0.283483 -10.58334,-0.566965 -17.292415,-0.283483 -6.709076,0.283483 -13.701635,0.0945 -14.646576,0.472472 -0.944941,0.377976 -2.834823,0.755952 -3.212798,2.929316 -0.377976,2.173361 -0.283483,9.827379 -0.283483,12.567708 0,2.740327 0,12.945684 -0.188986,15.780504 -0.18899,2.834822 -0.472472,9.732888 -0.472472,9.732888 z"
         style="display:inline;fill:#aae2de;fill-opacity:1;stroke:#000000;stroke-width:1.16499996;stroke-linecap:butt;stroke-linejoin:miter;stroke-miterlimit:4;stroke-dasharray:none;stroke-opacity:1" />
      <path
         id="path842"
         d="M 78.524551,55.662202 116.2513,56.843376 115.75521,62.843748 89.958332,62.560268 78.335565,62.18229 Z"
         style="display:inline;fill:#f28291;fill-opacity:0.99215686;stroke:#000000;stroke-width:0.69999999;stroke-linecap:butt;stroke-linejoin:miter;stroke-miterlimit:4;stroke-dasharray:none;stroke-opacity:1" />
      <path
         id="path852"
         d="m 65.389881,96.200147 c 0,0 3.023809,0.472471 5.858629,0.188989 2.834822,-0.283483 7.181548,-0.188989 9.07143,-1.700893 1.889882,-1.511905 2.83482,-7.559524 3.307291,-11.528274 0.47247,-3.96875 2.173362,-17.292409 2.173362,-19.182291 0,-1.889882 0.283483,-3.212798 -0.188987,-3.779763 -0.472471,-0.566963 -1.228423,-1.511904 -2.55134,-1.606397 -1.322916,-0.0945 -9.827381,-0.283482 -13.323659,-0.188989 -3.496281,0.09449 -10.110864,-0.377976 -12.189733,0.188989 -2.078868,0.566962 -4.063243,0.850445 -4.630208,3.590772 -0.585915,7.17225 -0.03256,15.04756 0.09449,21.733631 0.283483,3.96875 0.283483,8.031993 0.283483,8.031993 1e-6,1.703516 1.13393,3.590774 3.496281,3.68527 2.36235,0.09449 8.598958,0.566963 8.598958,0.566963 z"
         style="display:inline;fill:#b5d884;fill-opacity:1;stroke:#000000;stroke-width:1.16499996;stroke-linecap:butt;stroke-linejoin:miter;stroke-miterlimit:4;stroke-dasharray:none;stroke-opacity:1" />
      <path
         id="path844"
         d="m 96.19494,38.936755 c 0,0 -1.795389,-0.755952 -1.41741,-2.645833 0.377976,-1.889882 1.795385,-2.645834 2.83482,-2.362351 1.039434,0.283482 1.795384,0.472469 1.889877,1.133927 0.03845,0.26911 0.593593,0.97313 0.503133,1.995656 -0.09034,1.021268 -0.82772,1.800323 -0.82772,1.800323 z"
         style="display:inline;fill:none;stroke:#000000;stroke-width:0.69999999;stroke-linecap:butt;stroke-linejoin:miter;stroke-miterlimit:4;stroke-dasharray:none;stroke-opacity:1" />
      <path
         id="path848"
         d="m 94.305053,39.031248 c 0,0 -2.031617,2.078871 -2.740322,2.220611 -0.708705,0.14174 -3.212798,0.14174 -4.535715,1.606399 -1.322916,1.464657 -3.260045,5.480653 -3.260045,5.480653 0,0 -0.283482,1.370166 0.519719,1.6064 0.803198,0.236235 3.543527,1.322916 3.543527,1.322916 0,0 1.181174,0.850448 1.55915,-0.472469 0.377979,-1.322917 2.031624,-4.063243 2.031624,-4.063243 0,0 0.33073,-0.425225 0.28348,-1.937128 -0.04725,-1.511906 -0.330729,-3.118306 0.04725,-3.307292 0.377975,-0.188989 2.551332,-2.456847 2.551332,-2.456847 z"
         style="display:inline;fill:#fffffc;fill-opacity:1;stroke:#000000;stroke-width:0.26458332px;stroke-linecap:butt;stroke-linejoin:miter;stroke-opacity:1" />
      <path
         id="path854"
         d="m 60.381697,58.686011 6.047618,-0.188989 c 0.108381,12.65868 -0.256999,25.222608 -1.039434,37.703125 0,0 -7.315294,-0.76371 -6.992559,-0.566963 0.77994,0.475468 2.62709,-36.866834 1.984375,-36.947173 z"
         style="display:inline;fill:#f28291;fill-opacity:0.99215686;stroke:#000000;stroke-width:0.69999999;stroke-linecap:butt;stroke-linejoin:miter;stroke-miterlimit:4;stroke-dasharray:none;stroke-opacity:1" />
      <path
         id="path856"
         d="m 55.656993,58.780505 c 0,0 -0.755952,-2.456844 -0.566963,-4.535715 0.188987,-2.078869 0.755952,-2.740327 1.41741,-2.645834 0.661458,0.0945 5.085482,3.018079 5.085482,3.018079 0,0 0.584161,-0.844714 2.00157,-0.844714 1.417413,0 1.995841,1.006025 1.995841,1.006025 0,0 2.067405,-1.761977 3.201333,-2.139953 1.133927,-0.377978 2.645833,-1.039437 3.212798,-0.755954 0.566963,0.283482 0.850445,2.173364 0.661458,3.401787 -0.188989,1.228421 -0.661458,3.307292 -0.661458,3.307292 z"
         style="display:inline;fill:#f28291;fill-opacity:0.99215686;stroke:#000000;stroke-width:0.69999999;stroke-linecap:butt;stroke-linejoin:miter;stroke-miterlimit:4;stroke-dasharray:none;stroke-opacity:1" />
      <path
         id="path858"
         d="m 61.806079,58.528764 c 0,0 -0.367496,-1.570209 -0.367496,-2.33861 0,-0.7684 0.218781,-1.898118 0.927489,-2.205222 0.708705,-0.307105 1.842632,-0.307105 2.315104,0.02363 0.472469,0.330729 1.157552,0.637834 1.299292,1.724515 0.14174,1.086683 -0.14174,2.598586 -0.14174,2.598586"
         style="display:inline;fill:none;stroke:#000000;stroke-width:0.69999999;stroke-linecap:butt;stroke-linejoin:miter;stroke-miterlimit:4;stroke-dasharray:none;stroke-opacity:1" />
      <path
         id="path860"
         d="m 66.429315,58.497022 c 0,0 2.425996,2.637618 3.261214,2.871481 0.835216,0.23386 2.204974,0.534537 3.641548,1.46998 1.436574,0.935445 2.338607,1.469982 3.173825,2.605878 0.835216,1.135896 2.004521,2.271792 1.737252,2.839739 -0.267269,0.567949 -3.140416,3.374279 -3.140416,3.374279 0,0 -0.734992,0.634764 -1.536801,-0.06682 -0.801809,-0.701583 -3.441097,-4.176086 -3.441097,-4.176086 0,0 -0.567946,-0.7684 -0.334086,-1.904296 0.233862,-1.135896 0.7684,-1.870887 0.501131,-2.639287 -0.267269,-0.768398 -3.86257,-4.37487 -3.86257,-4.37487 z"
         style="display:inline;fill:#ffffff;fill-opacity:1;stroke:#000000;stroke-width:0.26458332px;stroke-linecap:butt;stroke-linejoin:miter;stroke-opacity:1" />
      <path
         id="path840"
         d="m 94.210565,80.041664 0.09449,-41.010416 6.142115,0.0945 c 0,0 -0.755955,9.543897 -0.944942,16.252976 -0.188989,6.709076 0.661462,24.379464 0.661462,24.379464 z"
         style="display:inline;fill:#f28291;fill-opacity:0.99215686;stroke:#000000;stroke-width:0.69999999;stroke-linecap:butt;stroke-linejoin:miter;stroke-miterlimit:4;stroke-dasharray:none;stroke-opacity:1" />
      <path
         id="path828"
         d="m 76.171816,87.727958 0.400902,-7.34991 c 0,0 0,-1.469983 1.937705,-2.071341 1.937705,-0.601356 4.142676,-0.668174 4.142676,-0.668174 0,0 9.354434,0.133636 14.031651,-0.06682 4.67722,-0.200451 15.56845,-0.467719 15.56845,-0.467719 0,0 2.07134,0.06682 3.00678,1.269529 0.93545,1.202713 0.86863,2.472242 0.86863,2.472242 l 0.0668,13.229842 c 0,0 0.13363,1.403167 -1.20272,2.472245 -1.33634,1.069078 -1.60361,1.737252 -4.07586,2.00452 -2.47224,0.267269 -8.48581,0.668174 -14.566187,0.534538 C 90.270281,98.953279 82.452648,98.418739 81.650839,98.285106 80.849032,98.15147 80.849032,98.15147 80.849032,98.15147 c 0,0 -2.806332,-0.467723 -3.608138,-1.536801 -0.80181,-1.069078 -0.80181,-1.069078 -0.935445,-3.073598 -0.133633,-2.004523 -0.133633,-5.813113 -0.133633,-5.813113 z"
         style="display:inline;fill:#f28291;fill-opacity:1;stroke:#000000;stroke-width:0.96499997;stroke-linecap:butt;stroke-linejoin:miter;stroke-miterlimit:4;stroke-dasharray:none;stroke-opacity:1" />
      <path
         id="path833"
         d="m 76.03818,85.589802 28.79829,0.601356 11.42577,-0.601356 0.0668,4.075861 -11.22532,0.334087 -29.132378,-0.868627 z"
         style="display:inline;fill:#f7dd6d;fill-opacity:1;stroke:#000000;stroke-width:0.69999999;stroke-linecap:butt;stroke-linejoin:miter;stroke-miterlimit:4;stroke-dasharray:none;stroke-opacity:1" />
      <path
         id="path831"
         d="m 105.54985,77.206844 -0.51161,21.973223 3.72441,-0.428577 0.47247,-21.780878 z"
         style="display:inline;fill:#f7dd6d;fill-opacity:1;stroke:#000000;stroke-width:0.69999999;stroke-linecap:round;stroke-linejoin:round;stroke-miterlimit:4;stroke-dasharray:none;stroke-opacity:1" />
    </g>
  </g>
</svg>
