<?xml version="1.0" encoding="UTF-8" standalone="no"?>
<svg
   xmlns:dc="http://purl.org/dc/elements/1.1/"
   xmlns:cc="http://creativecommons.org/ns#"
   xmlns:rdf="http://www.w3.org/1999/02/22-rdf-syntax-ns#"
   xmlns:svg="http://www.w3.org/2000/svg"
   xmlns="http://www.w3.org/2000/svg"
   xmlns:xlink="http://www.w3.org/1999/xlink"
   xmlns:sodipodi="http://sodipodi.sourceforge.net/DTD/sodipodi-0.dtd"
   xmlns:inkscape="http://www.inkscape.org/namespaces/inkscape"
   viewBox="0 0 6.5 48"
   height="6.5mm"
   width="48mm"
   id="svg4789"
   version="1.1"
   sodipodi:docname="rosatomicon.svg"
   inkscape:version="0.92.3 (2405546, 2018-03-11)">
  <sodipodi:namedview
     pagecolor="#ffffff"
     bordercolor="#666666"
     borderopacity="1"
     objecttolerance="10"
     gridtolerance="10"
     guidetolerance="10"
     inkscape:pageopacity="0"
     inkscape:pageshadow="2"
     inkscape:window-width="1366"
     inkscape:window-height="721"
     id="namedview939"
     showgrid="false"
     inkscape:zoom="4.7514757"
     inkscape:cx="90.708661"
     inkscape:cy="12.283465"
     inkscape:window-x="-4"
     inkscape:window-y="-4"
     inkscape:window-maximized="1"
     inkscape:current-layer="svg4789" />
  <metadata
     id="metadata4793">
    <rdf:RDF>
      <cc:Work
         rdf:about="">
        <dc:format>image/svg+xml</dc:format>
        <dc:title />
        <dc:type
           rdf:resource="http://purl.org/dc/dcmitype/StillImage" />
      </cc:Work>
    </rdf:RDF>
  </metadata>
  <defs
     id="defs4759">
    <style
       id="style4746">.a{fill:url(#a);}.b{fill:url(#b);}.c{fill:url(#c);}.d{fill:url(#d);}.e{fill:url(#e);}.f{fill:url(#f);}.g{fill:url(#g);}.h{fill:#1a1a1a;}</style>
    <radialGradient
       gradientUnits="userSpaceOnUse"
       gradientTransform="matrix(0.14,0,0,0.14,877.22,-477.22)"
       r="70.220001"
       cy="3594.21"
       cx="-6003.3501"
       id="a">
      <stop
         id="stop4748"
         stop-color="#4495d1"
         offset="0" />
      <stop
         id="stop4750"
         stop-color="#15256d"
         offset="1" />
    </radialGradient>
    <linearGradient
       xlink:href="#a"
       gradientTransform="matrix(0.07678627,0.07678627,-0.07678627,0.07678627,-72.945826,-42.61997)"
       y2="-225.38"
       x2="800.46002"
       y1="-212.88"
       x1="771.13"
       id="b" />
    <linearGradient
       xlink:href="#a"
       gradientTransform="matrix(0.02810572,-0.10489199,0.10489199,0.02810572,-115.73397,66.19113)"
       y2="884.98999"
       x2="841.54999"
       y1="897.47998"
       x1="812.21997"
       id="c" />
    <linearGradient
       xlink:href="#a"
       gradientTransform="matrix(-0.10489199,0.02810572,-0.02810572,-0.10489199,-13.755485,45.029125)"
       y2="298.81"
       x2="-252.84"
       y1="311.29999"
       x1="-282.17001"
       id="d" />
    <linearGradient
       gradientTransform="matrix(0.10859218,0,0,0.10859218,-0.01423051,2.9022e-4)"
       xlink:href="#a"
       y2="4.5"
       x2="25.65"
       y1="24.889999"
       x1="12.35"
       id="e" />
    <linearGradient
       gradientTransform="matrix(0.10859218,0,0,0.10859218,-0.01423051,2.9022e-4)"
       xlink:href="#a"
       y2="56.419998"
       x2="13.66"
       y1="53.990002"
       x1="37.5"
       id="f" />
    <linearGradient
       gradientTransform="matrix(0.10859218,0,0,0.10859218,-0.01423051,2.9022e-4)"
       xlink:href="#a"
       y2="44.029999"
       x2="57.720001"
       y1="19.49"
       x1="52.860001"
       id="g" />
    <radialGradient
       r="70.220001"
       cy="3594.21"
       cx="-6003.3501"
       gradientTransform="matrix(0.01520291,0,0,0.01520291,95.245002,-51.822069)"
       gradientUnits="userSpaceOnUse"
       id="radialGradient5416"
       xlink:href="#a" />
  </defs>
  <g
     transform="matrix(0.94554551,0,0,0.91549837,-0.20956119,-11.834189)"
     id="g922">
    <g
       id="g890"
       transform="matrix(2.858961,0,0,2.858961,1.8111801,15.044374)">
      <path
         style="fill:url(#radialGradient5416);stroke-width:0.10859217"
         id="path4761"
         d="m 4.2208642,4.1637143 a 0.76014523,0.76014523 0 1 1 -0.05321,-1.0859218 0.76014523,0.76014523 0 0 1 0.05321,1.0859218 z"
         class="a"
         inkscape:connector-curvature="0" />
      <path
         style="fill:url(#b);stroke-width:0.10859217"
         id="path4763"
         d="m 3.8581665,1.0330019 a 2.3966293,2.3966293 0 0 1 0.1770052,0.1911222 3.0069174,3.0069174 0 0 1 0.4506575,0.7308253 2.3151852,2.3151852 0 0 0 0.5494765,0.038007 h 0.032578 0.02932 a 2.0914853,2.0914853 0 0 0 1.3172226,-0.634178 l 0.045609,-0.048867 C 6.3916218,1.2273819 6.319951,1.1459377 6.2428506,1.0677514 A 3.6562986,3.6562986 0 0 0 1.4734822,0.72568592 C 2.5974113,0.18163912 3.3749313,0.55736802 3.8581665,1.0330019 Z"
         class="b"
         inkscape:connector-curvature="0" />
      <path
         style="fill:url(#c);stroke-width:0.10859217"
         id="path4765"
         d="m 1.2871257,4.7475027 c 0.021718,-0.086874 0.048866,-0.1694038 0.077101,-0.2486761 A 3.012347,3.012347 0 0 1 1.7703609,3.7386815 2.3347318,2.3347318 0 0 0 1.5282004,3.2435012 L 1.5108256,3.2163531 A 0.19220815,0.19220815 0 0 0 1.4934509,3.1924629 2.0871416,2.0871416 0 0 0 0.29133559,2.371506 L 0.22618029,2.3552172 C 0.18925889,2.4572937 0.15450939,2.5593704 0.12518959,2.6657908 A 3.6573845,3.6573845 0 0 0 2.2134172,6.9660405 C 1.1807054,6.2656214 1.1166361,5.4044854 1.2871257,4.7475027 Z"
         class="c"
         inkscape:connector-curvature="0" />
      <path
         style="fill:url(#d);stroke-width:0.10859217"
         id="path4767"
         d="M 5.7878493,5.1323565 A 2.3499347,2.3499347 0 0 1 5.5337436,5.1899104 2.9928004,2.9928004 0 0 1 4.6769514,5.2127147 2.318443,2.318443 0 0 0 4.3685496,5.6698878 l -0.014117,0.028234 -0.013031,0.027148 A 2.0947431,2.0947431 0 0 0 4.2328095,7.1804052 c 0,0.02063 0.011945,0.04235 0.018461,0.06407 0.1085922,-0.01846 0.2171844,-0.04018 0.319261,-0.06841 a 3.6552126,3.6552126 0 0 0 2.6746248,-3.954931 c -0.092303,1.2444664 -0.804668,1.7309593 -1.457307,1.9112223 z"
         class="d"
         inkscape:connector-curvature="0" />
      <path
         style="fill:url(#e);stroke-width:0.10859217"
         id="path4769"
         d="M 1.4734822,0.72568592 A 3.4586608,3.4586608 0 0 0 0.26702319,2.2188284 2.1870464,2.1870464 0 0 1 1.893734,3.6924243 C 1.9936388,3.6283549 2.3031265,3.3840225 2.5116235,2.7150947 2.7624714,1.9006534 3.2391911,1.3033964 3.8581665,1.0395174 c 0,-0.00652 -0.7829496,-1.12392908 -2.3846843,-0.31383148 z"
         class="e"
         inkscape:connector-curvature="0" />
      <path
         style="fill:url(#f);stroke-width:0.10859217"
         id="path4771"
         d="M 3.9863052,6.5864052 A 2.1772731,2.1772731 0 0 1 4.558586,5.1128099 v -0.0076 C 4.4836573,5.0248503 4.2219502,4.8282984 3.5486788,4.9814134 2.7179486,5.1714497 1.8014306,5.1486453 1.268243,4.7435965 c 0,0 -0.57553851,1.2368647 0.9262912,2.2185377 a 3.4608326,3.4608326 0 0 0 1.8949335,0.299715 2.0849698,2.0849698 0 0 1 -0.1031625,-0.675444 z"
         class="f"
         inkscape:connector-curvature="0" />
      <path
         style="fill:url(#g);stroke-width:0.10859217"
         id="path4773"
         d="M 6.5566819,1.4293633 A 2.1609843,2.1609843 0 0 1 4.9397444,2.1623605 2.3890279,2.3890279 0 0 1 4.459767,2.1113222 h -0.00869 c -0.030406,0.1085922 -0.056468,0.4343687 0.401791,0.9273772 0.5787963,0.624405 1.0175087,1.429073 0.9349786,2.094743 0,0 1.3584882,-0.1194514 1.457307,-1.9112223 A 3.4597467,3.4597467 0 0 0 6.5566819,1.4293633 Z"
         class="g"
         inkscape:connector-curvature="0" />
    </g>
  </g>
  <g
     transform="matrix(2.7206703,0,0,2.634214,1.8115766,1.6122865)"
     id="g881">
    <path
       class="h"
       d="M 8.7105209,2.2996159 H 8.2432281 V 0.12401991 h 0.7507335 c 0.5464522,0 0.8911769,0.22726293 0.8911769,0.72775224 0,0.50048915 -0.3549382,0.75839435 -0.9448012,0.75839435 H 8.7105209 Z m 0,-1.0903515 h 0.2553518 c 0.2783334,0 0.4468658,-0.1098013 0.4468658,-0.33961766 0,-0.22981651 -0.158318,-0.33451063 -0.4443122,-0.33451063 H 8.7130746 Z"
       id="path4775"
       style="fill:#1a1a1a;stroke-width:0.2553516"
       inkscape:connector-curvature="0" />
    <path
       class="h"
       d="m 10.217096,1.211818 c 0,-0.73030576 0.451972,-1.13376139 1.049494,-1.13376139 0.671576,0 1.05971,0.42643717 1.05971,1.12610069 0,0.766055 -0.449419,1.1235472 -1.046942,1.1235472 -0.597522,0 -1.062262,-0.3855809 -1.062262,-1.1158865 z m 1.608715,0 c 0,-0.49538224 -0.227263,-0.7149847 -0.56688,-0.7149847 -0.339618,0 -0.549007,0.22981646 -0.549007,0.7149847 0,0.485168 0.255351,0.7149845 0.577096,0.7149845 0.321742,0 0.546452,-0.2272629 0.546452,-0.7149845 z"
       id="path4777"
       style="fill:#1a1a1a;stroke-width:0.2553516"
       inkscape:connector-curvature="0" />
    <path
       class="h"
       d="M 14.399754,2.2102428 A 1.1312078,1.1312078 0 0 1 13.812446,2.335365 1.0214064,1.0214064 0 0 1 12.709327,1.2399066 c 0,-0.74818026 0.439206,-1.15418941 1.149082,-1.15418941 a 1.3482565,1.3482565 0 0 1 0.546454,0.10469422 l -0.102141,0.39834847 a 1.3099537,1.3099537 0 0 0 -0.377921,-0.0663913 0.69455647,0.69455647 0 1 0 0,1.38911292 1.098012,1.098012 0 0 0 0.377921,-0.091927 z"
       id="path4779"
       style="fill:#1a1a1a;stroke-width:0.2553516"
       inkscape:connector-curvature="0" />
    <path
       class="h"
       d="m 16.105504,1.717414 h -0.926926 l -0.211942,0.5822019 h -0.283441 l 0.829894,-2.17559599 h 0.278334 L 16.600888,2.2996159 H 16.314893 Z M 15.26795,1.4620624 h 0.748182 l -0.3626,-1.0214064 v 0 z"
       id="path4781"
       style="fill:#1a1a1a;stroke-width:0.2553516"
       inkscape:connector-curvature="0" />
    <path
       class="h"
       d="M 17.576331,2.2996159 H 17.297997 V 0.3844786 H 16.654511 V 0.12912696 h 1.565305 V 0.3844786 h -0.643485 z"
       id="path4783"
       style="fill:#1a1a1a;stroke-width:0.2553516"
       inkscape:connector-curvature="0" />
    <path
       class="h"
       d="m 18.516024,1.211818 c 0,-0.69711011 0.400902,-1.11844022 0.975444,-1.11844022 0.646039,0 0.993317,0.45963283 0.993317,1.11844022 0,0.737966 -0.416224,1.1184401 -0.983103,1.1184401 -0.566881,0 -0.985658,-0.4289908 -0.985658,-1.1184401 z m 1.669999,0 c 0,-0.59752294 -0.255352,-0.85798163 -0.694555,-0.85798163 -0.383027,0 -0.676682,0.27577976 -0.676682,0.85798163 0,0.5822017 0.285994,0.8579815 0.71243,0.8579815 0.426439,0 0.648594,-0.296208 0.648594,-0.8579815 z"
       id="path4785"
       style="fill:#1a1a1a;stroke-width:0.2553516"
       inkscape:connector-curvature="0" />
    <path
       class="h"
       d="M 23.186404,2.2996159 H 22.905519 L 22.772736,0.58875988 22.218623,2.2996159 H 21.930075 L 21.383623,0.60663448 21.248288,2.2996159 H 20.9674 l 0.186407,-2.17559599 h 0.342171 L 22.083286,1.9931939 22.657827,0.12401991 H 23 Z"
       id="path4787"
       style="fill:#1a1a1a;stroke-width:0.2553516"
       inkscape:connector-curvature="0" />
  </g>
  <path
     id="path5338"
     d="M 24.238684,10.254089 H 64.882091"
     style="fill:none;stroke:#000000;stroke-width:0.30009955px;stroke-linecap:butt;stroke-linejoin:miter;stroke-opacity:1"
     inkscape:connector-curvature="0" />
  <flowRoot
     transform="translate(1.818644,-56.999259)"
     style="font-style:normal;font-weight:normal;font-size:40px;line-height:1.25;font-family:sans-serif;letter-spacing:0px;word-spacing:0px;fill:#000000;fill-opacity:1;stroke:none"
     id="flowRoot5340"
     xml:space="preserve"><flowRegion
       id="flowRegion5342"><rect
         y="24.678717"
         x="75.781487"
         height="42.643234"
         width="260.62976"
         id="rect5344" /></flowRegion><flowPara
       id="flowPara5346" /></flowRoot>  <flowRoot
     transform="translate(1.818644,-56.999259)"
     style="font-style:normal;font-weight:normal;font-size:40px;line-height:1.25;font-family:sans-serif;letter-spacing:0px;word-spacing:0px;fill:#000000;fill-opacity:1;stroke:none"
     id="flowRoot5348"
     xml:space="preserve"><flowRegion
       id="flowRegion5350"><rect
         y="24.678717"
         x="75.781487"
         height="42.128841"
         width="256.51459"
         id="rect5352" /></flowRegion><flowPara
       id="flowPara5354">БББББ</flowPara></flowRoot>  <g
     transform="matrix(2.7206703,0,0,2.634214,1.9702007,2.0910925)"
     id="g912">
    <g
       aria-label="БЛАГОТВОРИТЕЛЬНОСТЬ"
       style="font-style:normal;font-weight:normal;font-size:4.34368706px;line-height:1.25;font-family:sans-serif;letter-spacing:0px;word-spacing:0px;fill:#1a1a1a;fill-opacity:1;stroke:none;stroke-width:0.10859217;paint-order:normal"
       id="text5358">
      <path
         d="m 9.394427,6.6388442 q 0.2395251,0 0.34642,-0.08908 0.1148141,-0.097 0.1148141,-0.281096 0,-0.180138 -0.1148141,-0.275156 -0.104915,-0.08908 -0.34642,-0.08908 H 8.9470501 v 0.734411 z m 0.05543,0.518641 H 8.1849251 V 4.2020249 H 10.419831 V 4.7780724 H 8.9470501 V 5.3283859 H 9.449854 q 0.560211,0 0.878918,0.2316067 0.289014,0.2098316 0.289014,0.6849226 0,0.471132 -0.289014,0.680963 -0.318707,0.231607 -0.878918,0.231607 z"
         style="font-style:normal;font-variant:normal;font-weight:bold;font-stretch:normal;font-size:4.05410767px;font-family:sans-serif;-inkscape-font-specification:'sans-serif Bold';fill:#1a1a1a;fill-opacity:1;stroke-width:0.10859217;paint-order:normal"
         id="path911"
         inkscape:connector-curvature="0" />
      <path
         d="m 11.086938,7.1574852 v -0.576047 q 0.502804,-0.05543 0.603761,-0.382053 0.100957,-0.328604 0.100957,-1.4391287 V 4.2020249 h 2.104256 V 7.1574852 H 13.133787 V 4.7780724 H 12.553781 V 4.958211 q 0,1.0847902 -0.192016,1.5875952 -0.192016,0.500825 -1.274827,0.611679 z"
         style="font-style:normal;font-variant:normal;font-weight:bold;font-stretch:normal;font-size:4.05410767px;font-family:sans-serif;-inkscape-font-specification:'sans-serif Bold';fill:#1a1a1a;fill-opacity:1;stroke-width:0.10859217;paint-order:normal"
         id="path913"
         inkscape:connector-curvature="0" />
      <path
         d="m 16.431708,6.6190492 h -1.191685 l -0.188057,0.538436 H 14.285882 L 15.38057,4.2020249 h 0.908611 l 1.094689,2.9554603 h -0.766084 z m -1.001649,-0.548334 h 0.809634 L 15.835866,4.8948656 Z"
         style="font-style:normal;font-variant:normal;font-weight:bold;font-stretch:normal;font-size:4.05410767px;font-family:sans-serif;-inkscape-font-specification:'sans-serif Bold';fill:#1a1a1a;fill-opacity:1;stroke-width:0.10859217;paint-order:normal"
         id="path915"
         inkscape:connector-curvature="0" />
      <path
         d="M 17.77384,7.1574852 V 4.2020249 h 2.100297 v 0.5760475 h -1.338172 v 2.3794128 z"
         style="font-style:normal;font-variant:normal;font-weight:bold;font-stretch:normal;font-size:4.05410767px;font-family:sans-serif;-inkscape-font-specification:'sans-serif Bold';fill:#1a1a1a;fill-opacity:1;stroke-width:0.10859217;paint-order:normal"
         id="path917"
         inkscape:connector-curvature="0" />
      <path
         d="m 21.705216,4.7008702 q -0.3484,0 -0.540416,0.2573408 -0.192015,0.2573408 -0.192015,0.7245134 0,0.4651928 0.192015,0.7225338 0.192016,0.257341 0.540416,0.257341 0.35038,0 0.542395,-0.257341 0.192016,-0.257341 0.192016,-0.7225338 0,-0.4671726 -0.192016,-0.7245134 -0.192015,-0.2573408 -0.542395,-0.2573408 z m 0,-0.552293 q 0.712636,0 1.116463,0.4077862 0.403827,0.4077863 0.403827,1.126361 0,0.7165948 -0.403827,1.1243818 -0.403827,0.407786 -1.116463,0.407786 -0.710656,0 -1.116463,-0.407786 -0.403827,-0.407787 -0.403827,-1.1243818 0,-0.7185747 0.403827,-1.126361 0.405807,-0.4077862 1.116463,-0.4077862 z"
         style="font-style:normal;font-variant:normal;font-weight:bold;font-stretch:normal;font-size:4.05410767px;font-family:sans-serif;-inkscape-font-specification:'sans-serif Bold';fill:#1a1a1a;fill-opacity:1;stroke-width:0.10859217;paint-order:normal"
         id="path919"
         inkscape:connector-curvature="0" />
      <path
         d="m 23.415542,4.2020249 h 2.500165 V 4.5385475 H 24.866549 V 7.1574852 H 24.464701 V 4.5385475 h -1.049159 z"
         style="font-size:4.05410767px;line-height:28.25;fill:#1a1a1a;fill-opacity:1;stroke-width:0.10859217;paint-order:normal"
         id="path921"
         inkscape:connector-curvature="0" />
      <path
         d="m 26.703566,5.7460702 v 1.082811 h 0.641372 q 0.322666,0 0.477071,-0.13263 0.156384,-0.134609 0.156384,-0.409766 0,-0.277136 -0.156384,-0.407786 -0.154405,-0.132629 -0.477071,-0.132629 z m 0,-1.2154408 v 0.8907951 h 0.591884 q 0.292972,0 0.4355,-0.108875 0.144506,-0.1108545 0.144506,-0.3365226 0,-0.2236885 -0.144506,-0.334543 -0.142528,-0.1108545 -0.4355,-0.1108545 z M 26.303698,4.2020249 h 1.021445 q 0.457275,0 0.704718,0.1900363 0.247443,0.1900363 0.247443,0.5404157 0,0.2711977 -0.126691,0.4315408 -0.126691,0.1603431 -0.372154,0.199934 0.294952,0.063345 0.457275,0.2652595 0.164302,0.199934 0.164302,0.500824 0,0.395909 -0.269218,0.61168 -0.269218,0.21577 -0.766084,0.21577 h -1.061036 z"
         style="font-size:4.05410767px;fill:#1a1a1a;fill-opacity:1;stroke-width:0.10859217;paint-order:normal"
         id="path923"
         inkscape:connector-curvature="0" />
      <path
         d="m 30.282584,4.4732226 q -0.4355,0 -0.692841,0.3246453 -0.255361,0.3246453 -0.255361,0.8848565 0,0.5582318 0.255361,0.8828768 0.257341,0.324646 0.692841,0.324646 0.435499,0 0.688881,-0.324646 0.255361,-0.324645 0.255361,-0.8828768 0,-0.5602112 -0.255361,-0.8848565 -0.253382,-0.3246453 -0.688881,-0.3246453 z m 0,-0.3246454 q 0.621577,0 0.993731,0.417684 0.372154,0.4157044 0.372154,1.1164632 0,0.6987798 -0.372154,1.1164628 -0.372154,0.415705 -0.993731,0.415705 -0.623557,0 -0.997691,-0.415705 -0.372154,-0.415704 -0.372154,-1.1164628 0,-0.7007588 0.372154,-1.1164632 0.374134,-0.417684 0.997691,-0.417684 z"
         style="font-size:4.05410767px;fill:#1a1a1a;fill-opacity:1;stroke-width:0.10859217;paint-order:normal"
         id="path925"
         inkscape:connector-curvature="0" />
      <path
         d="M 32.673874,4.5306294 V 5.641154 h 0.502805 q 0.279115,0 0.43154,-0.1445068 0.152425,-0.1445068 0.152425,-0.4117453 0,-0.265259 -0.152425,-0.4097658 -0.152425,-0.1445067 -0.43154,-0.1445067 z M 32.274006,4.2020249 h 0.902673 q 0.496865,0 0.750247,0.2256681 0.255361,0.2236886 0.255361,0.6572089 0,0.4374794 -0.255361,0.6611683 -0.253382,0.223688 -0.750247,0.223688 h -0.502805 v 1.187727 h -0.399868 z"
         style="font-size:4.05410767px;fill:#1a1a1a;fill-opacity:1;stroke-width:0.10859217;paint-order:normal"
         id="path927"
         inkscape:connector-curvature="0" />
      <path
         d="M 36.957608,4.2020249 V 7.1574852 H 36.569617 V 4.6850338 L 35.259159,7.1574852 H 34.720722 V 4.2020249 h 0.387991 v 2.4724513 l 1.310459,-2.4724513 z"
         style="font-size:4.05410767px;fill:#1a1a1a;fill-opacity:1;stroke-width:0.10859217;paint-order:normal"
         id="path929"
         inkscape:connector-curvature="0" />
      <path
         d="m 37.34362,4.2020249 h 2.500165 V 4.5385475 H 38.794626 V 7.1574852 H 38.392779 V 4.5385475 H 37.34362 Z"
         style="font-size:4.05410767px;fill:#1a1a1a;fill-opacity:1;stroke-width:0.10859217;paint-order:normal"
         id="path931"
         inkscape:connector-curvature="0" />
      <path
         d="m 40.231777,4.2020249 h 1.868691 v 0.3365226 h -1.468823 v 0.8749588 h 1.407457 v 0.3365229 h -1.407457 v 1.070933 H 42.1361 v 0.336523 h -1.904323 z"
         style="font-size:4.05410767px;fill:#1a1a1a;fill-opacity:1;stroke-width:0.10859217;paint-order:normal"
         id="path933"
         inkscape:connector-curvature="0" />
      <path
         d="m 42.565658,7.1574852 v -0.336523 q 0.429561,-0.09304 0.552293,-0.417684 0.17222,-0.510722 0.17222,-1.6984489 V 4.2020249 h 1.757836 V 7.1574852 H 44.648139 V 4.5385475 H 43.68806 v 0.3642363 q 0,1.1204224 -0.201914,1.6430224 -0.193995,0.500825 -0.920488,0.611679 z"
         style="font-size:4.05410767px;fill:#1a1a1a;fill-opacity:1;stroke-width:0.10859217;paint-order:normal"
         id="path935"
         inkscape:connector-curvature="0" />
      <path
         d="m 47.520459,6.2884652 q 0,-0.275157 -0.156384,-0.409766 -0.154404,-0.132629 -0.47707,-0.132629 h -0.641373 v 1.082811 h 0.641373 q 0.322666,0 0.47707,-0.134609 0.156384,-0.13263 0.156384,-0.405807 z M 45.845764,4.2020249 h 0.399868 V 5.4174654 H 46.9068 q 0.496866,0 0.766084,0.2157704 0.269218,0.2157704 0.269218,0.6552294 0,0.437479 -0.269218,0.65325 -0.269218,0.21577 -0.766084,0.21577 h -1.061036 z"
         style="font-size:4.05410767px;fill:#1a1a1a;fill-opacity:1;stroke-width:0.10859217;paint-order:normal"
         id="path937"
         inkscape:connector-curvature="0" />
      <path
         d="m 48.625046,4.2020249 h 0.399868 V 5.4135063 H 50.4779 V 4.2020249 h 0.399868 V 7.1574852 H 50.4779 v -1.407456 h -1.452986 v 1.407456 h -0.399868 z"
         style="font-size:4.05410767px;fill:#1a1a1a;fill-opacity:1;stroke-width:0.10859217;paint-order:normal"
         id="path939"
         inkscape:connector-curvature="0" />
      <path
         d="m 52.873146,4.4732226 q -0.435499,0 -0.69284,0.3246453 -0.255362,0.3246453 -0.255362,0.8848565 0,0.5582318 0.255362,0.8828768 0.257341,0.324646 0.69284,0.324646 0.4355,0 0.688882,-0.324646 0.255361,-0.324645 0.255361,-0.8828768 0,-0.5602112 -0.255361,-0.8848565 -0.253382,-0.3246453 -0.688882,-0.3246453 z m 0,-0.3246454 q 0.621577,0 0.993732,0.417684 0.372154,0.4157044 0.372154,1.1164632 0,0.6987798 -0.372154,1.1164628 -0.372155,0.415705 -0.993732,0.415705 -0.623556,0 -0.99769,-0.415705 -0.372155,-0.415704 -0.372155,-1.1164628 0,-0.7007588 0.372155,-1.1164632 0.374134,-0.417684 0.99769,-0.417684 z"
         style="font-size:4.05410767px;fill:#1a1a1a;fill-opacity:1;stroke-width:0.10859217;paint-order:normal"
         id="path941"
         inkscape:connector-curvature="0" />
      <path
         d="m 56.935788,4.3393056 -0.08106,0.323822 c -0.166762,-0.085184 -0.05548,-0.030882 -0.208567,-0.092907 -0.151765,-0.062026 -0.313427,-0.093039 -0.484988,-0.093039 -0.337843,0 -0.596503,0.1035962 -0.775982,0.3107886 -0.179479,0.2058727 -0.269218,0.5041241 -0.269218,0.8947542 0,0.3893102 0.08974,0.6875622 0.269218,0.8947542 0.179479,0.205872 0.438139,0.308809 0.775982,0.308809 0.171561,0 0.333223,-0.03101 0.484988,-0.09304 0.153085,-0.06203 0.03572,0.005 0.214532,-0.09222 l 0.09645,0.301143 c -0.139888,0.09502 -0.167794,0.09395 -0.324838,0.141455 -0.155724,0.04751 -0.320686,0.07126 -0.494886,0.07126 -0.447377,0 -0.799736,-0.136589 -1.057077,-0.409766 -0.257341,-0.274497 -0.386011,-0.648631 -0.386011,-1.1224022 0,-0.4750907 0.12867,-0.8492247 0.386011,-1.1224019 0.257341,-0.2744969 0.6097,-0.4117453 1.057077,-0.4117453 0.176839,0 0.343121,0.023755 0.498845,0.071264 0.148482,0.046189 0.121694,0.025772 0.299524,0.1194714 z"
         style="font-size:4.05410767px;fill:#1a1a1a;fill-opacity:1;stroke-width:0.10859217;paint-order:normal"
         id="path943"
         inkscape:connector-curvature="0" />
      <path
         d="m 57.289514,4.2020249 h 2.500165 V 4.5385475 H 58.740521 V 7.1574852 H 58.338673 V 4.5385475 h -1.049159 z"
         style="font-size:4.05410767px;fill:#1a1a1a;fill-opacity:1;stroke-width:0.10859217;paint-order:normal"
         id="path945"
         inkscape:connector-curvature="0" />
      <path
         d="m 61.852365,6.2884652 q 0,-0.275157 -0.156384,-0.409766 -0.154405,-0.132629 -0.477071,-0.132629 h -0.641372 v 1.082811 h 0.641372 q 0.322666,0 0.477071,-0.134609 0.156384,-0.13263 0.156384,-0.405807 z M 60.17767,4.2020249 h 0.399868 v 1.2154405 h 0.661168 q 0.496866,0 0.766084,0.2157704 0.269218,0.2157704 0.269218,0.6552294 0,0.437479 -0.269218,0.65325 -0.269218,0.21577 -0.766084,0.21577 H 60.17767 Z"
         style="font-size:4.05410767px;fill:#1a1a1a;fill-opacity:1;stroke-width:0.10859217;paint-order:normal"
         id="path947"
         inkscape:connector-curvature="0" />
    </g>
  </g>
</svg>
